# AST/ASF file generated using VICON BodyLanguage
# -----------------------------------------------
:version 1.10
:name VICON
:units
  mass 1.0
  length 0.45
  angle deg
:documentation
   .ast/.asf automatically generated from VICON data using
   VICON BodyBuilder and BodyLanguage model FoxedUp or BRILLIANT.MOD
:root
   order TX TY TZ RX RY RZ
   axis XYZ
   position 0 0 0  
   orientation 0 0 0 
:bonedata
  begin
     id 1 
     name lhipjoint
     direction 0.621563 -0.714088 0.322083 
     length 2.21591 
     axis 0 0 0  XYZ
  end
  begin
     id 2 
     name lfemur
     direction 0.34202 -0.939693 0  
     length 6.84027  
     axis 0 0 20  XYZ
    dof rx ry rz
    limits (-160.0 20.0)
           (-70.0 70.0)
           (-60.0 70.0)
  end
  begin
     id 3 
     name ltibia
     direction 0.34202 -0.939693 0   
     length 6.74005   
     axis 0 0 20   XYZ
    dof rx
    limits (-10.0 170.0)
  end
  begin
     id 4 
     name lfoot
     direction 0.0348332 -0.0960526 0.994767   
     length 1.54672   
     axis -90 7.62852e-016 20   XYZ
    dof rx rz
    limits (-45.0 90.0)
           (-70.0 20.0)
  end
  begin
     id 5 
     name ltoes
     direction 1.53538e-011 -4.22089e-011 1   
     length 0.792077   
     axis -90 7.62852e-016 20   XYZ
    dof rx
    limits (-90.0 20.0)
  end
  begin
     id 6 
     name rhipjoint
     direction -0.648389 -0.693984 0.313015   
     length 2.2801  
     axis 0 0 0  XYZ 
  end
  begin
     id 7 
     name rfemur
     direction -0.34202 -0.939693 0   
     length 6.62341   
     axis 0 0 -20   XYZ
    dof rx ry rz
    limits (-160.0 20.0)
           (-70.0 70.0)
           (-70.0 60.0)
  end
  begin
     id 8 
     name rtibia
     direction -0.34202 -0.939693 0   
     length 6.63811   
     axis 0 0 -20   XYZ
    dof rx
    limits (-10.0 170.0)
 end
 begin
     id 9 
     name rfoot
     direction -0.0578404 -0.158915 0.985596   
     length 1.64992  
     axis -90 -7.62852e-016 -20   XYZ
    dof rx rz
    limits (-45.0 90.0)
           (-20.0 70.0)
  end
  begin
     id 10 
     name rtoes
     direction -1.53571e-011 -4.21911e-011 1   
     length 0.839909   
     axis -90 -7.62852e-016 -20   XYZ
    dof rx
    limits (-90.0 20.0)
  end
  begin
     id 11 
     name lowerback
     direction 0.000554472 0.999997 -0.00226605   
     length 1.81878   
     axis 0 0 0   XYZ
    dof rx ry rz
    limits (-20.0 45.0)
           (-30.0 30.0)
           (-30.0 30.0)
  end
  begin
     id 12 
     name upperback
     direction 0.00177008 0.999761 -0.021771   
     length 1.81977   
     axis 0 0 0   XYZ
    dof rx ry rz
    limits (-20.0 45.0)
           (-30.0 30.0)
           (-30.0 30.0)
  end
  begin
     id 13 
     name thorax
     direction 0.00134147 0.999799 -0.0200243   
     length 1.81422   
     axis 0 0 0   XYZ
    dof rx ry rz
    limits (-20.0 45.0)
           (-30.0 30.0)
           (-30.0 30.0)
  end
  begin
     id 14 
     name lowerneck
     direction -0.0819714 0.987506 0.134583   
     length 1.68295   
     axis 0 0 0   XYZ
    dof rx ry rz
    limits (-20.0 45.0)
           (-30.0 30.0)
           (-30.0 30.0)
  end
  begin
     id 15 
     name upperneck
     direction 0.0867129 0.969666 -0.228538   
     length 1.71188   
     axis 0 0 0   XYZ
    dof rx ry rz
    limits (-20.0 45.0)
           (-30.0 30.0)
           (-30.0 30.0)
  end
  begin
     id 16
     name head
     direction 0.023699 0.995021 -0.0968101  
     length 1.73365  
     axis 0 0 0   XYZ
    dof rx ry rz
    limits (-20.0 45.0)
           (-30.0 30.0)
           (-30.0 30.0)
  end
  begin
     id 17 
     name lclavicle
     direction 0.912847 0.398248 0.090054  
     length 3.56518  
     axis 0 0 0   XYZ
    dof ry rz
    limits (-20.0 10.0)
           (0.0 20.0)
  end
  begin
     id 18 
     name lhumerus
     direction 1 -4.48961e-011 -4.05442e-028   
     length 4.05444   
     axis 180 -30 -90   XYZ
    dof rx ry rz
    limits (-60.0 90.0)
           (-90.0 90.0)
           (-90.0 90.0)
  end
  begin
     id 19
     name lradius
     direction 1 -4.4897e-011 1.54979e-027   
     length 3.21205   
     axis 180 -30 -90   XYZ
    dof rx
    limits (-10.0 170.0)
  end
  begin
     id 20
     name lwrist
     direction 1 -4.48979e-011 1.55564e-027   
     length 1.60602   
     axis -1.61768e-015 90 90   XYZ
    dof ry
    limits (-180.0 0.0)
 end
  begin
     id 21 
     name lhand
     direction 1 -4.48877e-011 3.11128e-027   
     length 0.707407   
     axis -1.98526e-015 90 90   XYZ
    dof rx rz
    limits (-90.0 90.0)
           (-45.0 45.0)
  end
  begin
     id 22 
     name lfingers
     direction 1 -4.49016e-011 6.22255e-027   
     length 0.57033   
     axis -3.97052e-015 90 90   XYZ
    dof rx
    limits (0.0 90.0)
  end
  begin
     id 23
     name lthumb
     direction 0.707107 -6.35011e-011 0.707107   
     length 0.818883   
     axis -90 45 2.85299e-015   XYZ
    dof rx rz
    limits (-45.0 45.0)
           (-45.0 45.0)
  end
  begin
     id 24 
     name rclavicle
     direction -0.930415 0.353791 0.0957082   
     length 3.54688  
     axis 0 0 0   XYZ 
    dof ry rz
    limits (-10.0 20.0)
           (-20.0 0.0)
  end
  begin
     id 25 
     name rhumerus
     direction -1 -4.48952e-011 -8.4136e-018  
     length 3.74048   
     axis 180 30 90   XYZ
    dof rx ry rz
    limits (-90.0 60.0)
           (-90.0 90.0)
           (-90.0 90.0)
  end
  begin
     id 26 
     name rradius
     direction -1 -4.48964e-011 1.66692e-027   
     length 3.1603   
     axis 180 30 90   XYZ
    dof rx
    limits (-10.0 170.0)
  end
  begin
     id 27 
     name rwrist
     direction -1 -4.49008e-011 1.55564e-027   
     length 1.58015   
     axis -1.61768e-015 -90 -90   XYZ
    dof ry
    limits (-180.0 0.0)
  end
  begin
     id 28
     name rhand
     direction -1 -4.48922e-011 3.11128e-027   
     length 0.717028   
     axis -1.98526e-015 -90 -90   XYZ
    dof rx rz
    limits (-90.0 90.0)
           (-45.0 45.0)
  end
  begin
     id 29
     name rfingers
     direction -1 -4.49002e-011 6.22255e-027   
     length 0.578086   
     axis -3.97052e-015 -90 -90   XYZ
    dof rx
    limits (0.0 90.0)
  end
  begin
     id 30
     name rthumb
     direction -0.707107 -6.34899e-011 0.707107   
     length 0.83002   
     axis -90 -45 -2.85299e-015   XYZ
    dof rx rz
    limits (-45.0 45.0)
           (-45.0 45.0)
  end
:hierarchy
  begin
    root lhipjoint rhipjoint lowerback
    lhipjoint lfemur
    lfemur ltibia
    ltibia lfoot
    lfoot ltoes
    rhipjoint rfemur
    rfemur rtibia
    rtibia rfoot
    rfoot rtoes
    lowerback upperback
    upperback thorax
    thorax lowerneck lclavicle rclavicle
    lowerneck upperneck
    upperneck head
    lclavicle lhumerus
    lhumerus lradius
    lradius lwrist
    lwrist lhand lthumb
    lhand lfingers
    rclavicle rhumerus
    rhumerus rradius
    rradius rwrist
    rwrist rhand rthumb
    rhand rfingers
  end

#!OML:ASF G:\acrobat\cartwheel_test\acrobat_wednesday\Session 1\acrobatwednesday.ASF
:FULLY-SPECIFIED
:DEGREES
149
root 12.8927 19.6306 -1.26523 136.668 91.1059 194.182
lowerback 9.52955 0.441695 2.91649
upperback 4.98116 0.997485 -1.06517
thorax -0.102583 0.647229 -2.83495
lowerneck -11.7795 -4.8622 -6.79032
upperneck 22.4059 -6.3423 5.03704
head 9.37661 -2.89227 2.14562
rclavicle 4.77083e-015 -1.19271e-014
rhumerus -7.70281 -35.2314 2.41228
rradius 65.3911
rwrist -34.7955
rhand -41.0985 -24.0051
rfingers 7.12502
rthumb -14.0265 -413.512
lclavicle 4.77083e-015 -1.19271e-014
lhumerus -196.292 148.813 -182.387
lradius 64.6077
lwrist 84.4826
lhand -27.8318 -375.226
lfingers 7.12502
lthumb -1.22349 14.7506
rfemur -13.2034 -3.23885 10.0724
rtibia 88.035
rfoot 66.6317 -16.8464
rtoes 10.6996
lfemur -13.1156 2.27969 -16.9262
ltibia 82.4921
lfoot 22.1406 -30.7993
ltoes -31.8215
150
root 12.423 19.7519 -1.33552 75.4527 90.5292 137.609
lowerback 12.0992 -0.0318507 2.63827
upperback 6.84598 0.530776 -1.05364
thorax 0.411834 0.502761 -2.63946
lowerneck -13.3353 -4.95889 -6.65159
upperneck 22.2837 -6.17361 3.91756
head 9.57506 -2.92149 1.7201
rclavicle -4.17448e-015 -4.6118e-014
rhumerus -11.9086 -34.3355 -4.86339
rradius 61.9222
rwrist -32.104
rhand -38.2934 -23.9758
rfingers 7.12502
rthumb -11.3223 -413.65
lclavicle -4.17448e-015 -4.6118e-014
lhumerus -201.502 156.809 -172.72
lradius 61.7819
lwrist 81.436
lhand -30.3091 -369.354
lfingers 7.12502
lthumb -3.61592 20.5951
rfemur -20.5789 -4.09638 9.89622
rtibia 87.3565
rfoot 93.9648 -10.6194
rtoes 9.19669
lfemur -20.2863 0.444442 -17.1516
ltibia 87.2768
lfoot 10.091 -50.9152
ltoes -36.0963
151
root 11.9678 19.8111 -1.42058 -12.3133 90.4163 53.961
lowerback 14.3754 -0.263 2.23342
upperback 8.20094 0.353877 -1.13264
thorax 0.610525 0.48564 -2.48695
lowerneck -13.8793 -4.84433 -7.25088
upperneck 20.3329 -5.84473 4.00323
head 9.00165 -2.82888 1.87321
rclavicle 4.37326e-015 -6.04305e-014
rhumerus -13.8803 -32.4185 -13.3259
rradius 59.782
rwrist -34.4291
rhand -36.7604 -23.3598
rfingers 7.12502
rthumb -9.84346 -413.11
lclavicle 4.37326e-015 -6.04305e-014
lhumerus -203.357 164.676 -160.722
lradius 57.4811
lwrist 82.6368
lhand -26.6295 -369.901
lfingers 7.12502
lthumb -0.0622931 20.0789
rfemur -29.3609 -3.8087 9.32378
rtibia 83.0524
rfoot 123.116 -2.06548
rtoes 10.3832
lfemur -28.4993 -0.977814 -17.6825
ltibia 89.4016
lfoot -18.6694 -66.4759
ltoes -34.4807
152
root 11.5611 19.7551 -1.49828 -70.1798 91.9655 -0.915847
lowerback 16.1761 -0.314046 0.478226
upperback 8.79884 0.156965 -1.34637
thorax 0.282235 0.372879 -1.70364
lowerneck -14.5267 -4.85593 -8.77182
upperneck 17.8805 -5.6756 5.16888
head 8.3582 -2.74825 2.51849
rclavicle -1.8487e-014 -2.10712e-014
rhumerus -13.3353 -31.6718 -23.3452
rradius 58.7919
rwrist -37.3292
rhand -35.4909 -21.5659
rfingers 7.12502
rthumb -8.61855 -411.37
lclavicle -1.8487e-014 -2.10712e-014
lhumerus -203.729 174.198 -147.99
lradius 53.6607
lwrist 80.9432
lhand -29.8702 -370.016
lfingers 7.12502
lthumb -3.1921 19.9398
rfemur -40.4721 -3.8323 7.39612
rtibia 79.4892
rfoot 154.969 12.8782
rtoes 4.53738
lfemur -38.397 -2.18825 -19.3354
ltibia 89.8354
lfoot -72.8506 -67.4662
ltoes -37.8658
153
root 11.3154 19.6272 -1.56039 -83.0546 91.8489 -7.51347
lowerback 20.4544 -0.349757 0.094959
upperback 10.1965 0.271952 -1.09355
thorax -0.401472 0.523651 -1.2711
lowerneck -15.1814 -4.90295 -9.95324
upperneck 14.468 -5.5435 6.34043
head 7.40077 -2.63527 3.09368
rclavicle 5.76476e-015 -1.07344e-014
rhumerus -12.3274 -27.272 -32.4425
rradius 58.1827
rwrist -37.7504
rhand -33.4193 -19.8299
rfingers 7.12502
rthumb -6.61904 -409.706
lclavicle 5.76476e-015 -1.07344e-014
lhumerus -203.432 182.243 -137.187
lradius 49.5559
lwrist 74.9588
lhand -20.954 -366.005
lfingers 7.12502
lthumb 5.41875 23.9062
rfemur -48.0727 -2.41486 7.45847
rtibia 79.156
rfoot 158.286 13.664
rtoes 3.48662
lfemur -44.7545 -1.84056 -18.8374
ltibia 89.1857
lfoot -108.59 -54.4489
ltoes -40.1322
154
root 11.214 19.4439 -1.62149 -91.9052 98.0957 -10.4792
lowerback 23.5329 0.53752 -6.69515
upperback 11.4225 0.232173 -2.56079
thorax -0.481253 0.399946 0.986957
lowerneck -16.7957 -4.82199 -9.35564
upperneck 10.9995 -5.25296 6.18477
head 6.5024 -2.42935 2.94918
rclavicle -1.25234e-014 -5.09883e-014
rhumerus -10.9803 -20.767 -41.1204
rradius 56.4522
rwrist -32.7464
rhand -29.9267 -16.4465
rfingers 7.12502
rthumb -3.24665 -406.402
lclavicle -1.25234e-014 -5.09883e-014
lhumerus -201.698 184.263 -127.194
lradius 46.7873
lwrist 69.1438
lhand -17.6556 -369.717
lfingers 7.12502
lthumb 8.6027 20.0874
rfemur -57.5781 -3.30098 0.622718
rtibia 77.5906
rfoot 160.151 13.9191
rtoes 2.63406
lfemur -51.5939 -2.11889 -25.5761
ltibia 88.3845
lfoot -127.375 -37.0834
ltoes -43.0858
155
root 11.1514 19.3326 -1.66481 -89.9751 102.962 -4.02134
lowerback 24.116 1.12085 -12.0635
upperback 12.0861 -0.0289618 -3.85706
thorax 0.218399 0.112737 2.6326
lowerneck -16.0469 -4.72258 -10.2572
upperneck 4.34256 -4.99517 9.55444
head 4.39569 -2.04825 4.21834
rclavicle 5.38706e-014 4.36332e-014
rhumerus -9.85767 -13.7701 -49.4435
rradius 53.7674
rwrist -28.6138
rhand -23.1207 -15.5896
rfingers 7.12502
rthumb 3.32649 -405.543
lclavicle 5.38706e-014 4.36332e-014
lhumerus -199.775 190.707 -120.099
lradius 45.5213
lwrist 68.09
lhand -14.2834 -364.088
lfingers 7.12502
lthumb 11.8558 25.5564
rfemur -67.9728 -5.06009 -3.55541
rtibia 74.4803
rfoot 162.442 11.5163
rtoes 0.666212
lfemur -59.6927 -2.28528 -31.1303
ltibia 87.1346
lfoot -142.52 -17.7531
ltoes -44.8826
